<!-- Apple-Inspired AI Consciousness Icon Library -->
<svg xmlns="http://www.w3.org/2000/svg" style="display: none;">
  
  <!-- Consciousness State Icons -->
  <symbol id="consciousness-brain" viewBox="0 0 24 24">
    <path stroke="currentColor" stroke-width="1.5" fill="none" stroke-linecap="round" stroke-linejoin="round" 
          d="M12 4c-1.5 0-2.8.6-3.8 1.6C7.2 6.6 6.6 7.9 6.6 9.4c0 .8.2 1.5.5 2.2-.3.7-.5 1.4-.5 2.2 0 1.5.6 2.8 1.6 3.8 1 1 2.3 1.6 3.8 1.6s2.8-.6 3.8-1.6c1-1 1.6-2.3 1.6-3.8 0-.8-.2-1.5-.5-2.2.3-.7.5-1.4.5-2.2 0-1.5-.6-2.8-1.6-3.8C14.8 4.6 13.5 4 12 4z"/>
    <path stroke="currentColor" stroke-width="1.5" fill="none" stroke-linecap="round" stroke-linejoin="round" 
          d="M8 12c0-1.1.9-2 2-2s2 .9 2 2-.9 2-2 2-2-.9-2-2z"/>
    <path stroke="currentColor" stroke-width="1.5" fill="none" stroke-linecap="round" stroke-linejoin="round" 
          d="M14 12c0-1.1.9-2 2-2s2 .9 2 2-.9 2-2 2-2-.9-2-2z"/>
    <path stroke="currentColor" stroke-width="1.5" fill="none" stroke-linecap="round" stroke-linejoin="round" 
          d="M6 8l2 2m8-2l-2 2M6 16l2-2m8 2l-2-2"/>
  </symbol>

  <!-- Memory Palace Icon -->
  <symbol id="memory-palace" viewBox="0 0 24 24">
    <path stroke="currentColor" stroke-width="1.5" fill="none" stroke-linecap="round" stroke-linejoin="round" 
          d="M3 21h18M5 21V7l7-4 7 4v14M9 9h2m4 0h2M9 13h2m4 0h2M9 17h2m4 0h2"/>
    <circle cx="12" cy="7" r="1" fill="currentColor"/>
    <path stroke="currentColor" stroke-width="1.5" fill="none" stroke-linecap="round" stroke-linejoin="round" 
          d="M8 5l4-2 4 2"/>
  </symbol>

  <!-- Digital Twin Mirror Icon -->
  <symbol id="digital-twin" viewBox="0 0 24 24">
    <rect x="3" y="3" width="8" height="18" rx="2" stroke="currentColor" stroke-width="1.5" fill="none"/>
    <rect x="13" y="3" width="8" height="18" rx="2" stroke="currentColor" stroke-width="1.5" fill="none"/>
    <circle cx="7" cy="8" r="2" stroke="currentColor" stroke-width="1.5" fill="none"/>
    <circle cx="17" cy="8" r="2" stroke="currentColor" stroke-width="1.5" fill="none"/>
    <path stroke="currentColor" stroke-width="1.5" fill="none" stroke-linecap="round" stroke-linejoin="round" 
          d="M5 14c0-1.1.9-2 2-2s2 .9 2 2M15 14c0-1.1.9-2 2-2s2 .9 2 2"/>
    <path stroke="currentColor" stroke-width="1.5" fill="none" stroke-linecap="round" stroke-linejoin="round" 
          d="M7 17h0M17 17h0"/>
    <path stroke="currentColor" stroke-width="2" fill="none" stroke-linecap="round" 
          d="M11 12h2"/>
  </symbol>

  <!-- Quantum Entanglement Icon -->
  <symbol id="quantum-entanglement" viewBox="0 0 24 24">
    <circle cx="6" cy="6" r="3" stroke="currentColor" stroke-width="1.5" fill="none"/>
    <circle cx="18" cy="6" r="3" stroke="currentColor" stroke-width="1.5" fill="none"/>
    <circle cx="6" cy="18" r="3" stroke="currentColor" stroke-width="1.5" fill="none"/>
    <circle cx="18" cy="18" r="3" stroke="currentColor" stroke-width="1.5" fill="none"/>
    <path stroke="currentColor" stroke-width="1.5" fill="none" stroke-linecap="round" 
          d="M9 6c1.5 0 3 1.5 3 3s-1.5 3-3 3M15 18c-1.5 0-3-1.5-3-3s1.5-3 3-3"/>
    <path stroke="currentColor" stroke-width="1.5" fill="none" stroke-linecap="round" 
          d="M6 9c0 1.5 1.5 3 3 3s3-1.5 3-3M18 15c0-1.5-1.5-3-3-3s-3 1.5-3 3"/>
    <circle cx="12" cy="12" r="1" fill="currentColor"/>
  </symbol>

  <!-- Synesthesia Engine Icon -->
  <symbol id="synesthesia-engine" viewBox="0 0 24 24">
    <circle cx="12" cy="12" r="9" stroke="currentColor" stroke-width="1.5" fill="none"/>
    <path stroke="currentColor" stroke-width="1.5" fill="none" stroke-linecap="round" stroke-linejoin="round" 
          d="M12 3v6M21 12h-6M12 21v-6M3 12h6"/>
    <circle cx="12" cy="7" r="1.5" fill="#007AFF"/>
    <circle cx="17" cy="12" r="1.5" fill="#FF9500"/>
    <circle cx="12" cy="17" r="1.5" fill="#30D158"/>
    <circle cx="7" cy="12" r="1.5" fill="#5856D6"/>
    <path stroke="currentColor" stroke-width="1" fill="none" stroke-linecap="round" 
          d="M12 7c1.5 1.5 3 3 5 5M17 12c-1.5 1.5-3 3-5 5M12 17c-1.5-1.5-3-3-5-5M7 12c1.5-1.5 3-3 5-5"/>
  </symbol>

  <!-- Neural Network Icon -->
  <symbol id="neural-network" viewBox="0 0 24 24">
    <circle cx="4" cy="6" r="2" stroke="currentColor" stroke-width="1.5" fill="none"/>
    <circle cx="4" cy="18" r="2" stroke="currentColor" stroke-width="1.5" fill="none"/>
    <circle cx="20" cy="6" r="2" stroke="currentColor" stroke-width="1.5" fill="none"/>
    <circle cx="20" cy="18" r="2" stroke="currentColor" stroke-width="1.5" fill="none"/>
    <circle cx="12" cy="12" r="2" stroke="currentColor" stroke-width="1.5" fill="none"/>
    <path stroke="currentColor" stroke-width="1.5" fill="none" stroke-linecap="round" 
          d="M6 6l4 4M6 18l4-4M18 6l-4 4M18 18l-4-4"/>
    <circle cx="12" cy="4" r="1" fill="currentColor"/>
    <circle cx="12" cy="20" r="1" fill="currentColor"/>
    <path stroke="currentColor" stroke-width="1" fill="none" stroke-linecap="round" 
          d="M12 6v4M12 14v4"/>
  </symbol>

  <!-- Learning Progress Icon -->
  <symbol id="learning-progress" viewBox="0 0 24 24">
    <circle cx="12" cy="12" r="10" stroke="currentColor" stroke-width="1.5" fill="none"/>
    <path stroke="currentColor" stroke-width="2" fill="none" stroke-linecap="round" 
          d="M12 6v6l4 2"/>
    <path stroke="currentColor" stroke-width="1.5" fill="none" stroke-linecap="round" stroke-linejoin="round" 
          d="M8 8l2 2 4-4"/>
    <circle cx="18" cy="6" r="2" fill="#30D158"/>
  </symbol>

  <!-- Insight Generation Icon -->
  <symbol id="insight-generation" viewBox="0 0 24 24">
    <path stroke="currentColor" stroke-width="1.5" fill="none" stroke-linecap="round" stroke-linejoin="round" 
          d="M12 2l3.09 6.26L22 9.27l-5 4.87 1.18 6.88L12 17.77l-6.18 3.25L7 14.14 2 9.27l6.91-1.01L12 2z"/>
    <circle cx="12" cy="12" r="3" stroke="currentColor" stroke-width="1.5" fill="none"/>
    <path stroke="currentColor" stroke-width="1" fill="none" stroke-linecap="round" 
          d="M12 9v6M9 12h6"/>
  </symbol>

  <!-- Telegram Integration Icon -->
  <symbol id="telegram-integration" viewBox="0 0 24 24">
    <circle cx="12" cy="12" r="10" stroke="currentColor" stroke-width="1.5" fill="none"/>
    <path stroke="currentColor" stroke-width="1.5" fill="currentColor" 
          d="M8 12l3 3 5-8"/>
    <path stroke="currentColor" stroke-width="1.5" fill="none" stroke-linecap="round" stroke-linejoin="round" 
          d="M7 7l10 5-5 3-2-3-3-5z"/>
  </symbol>

  <!-- Privacy Lock Icon -->
  <symbol id="privacy-lock" viewBox="0 0 24 24">
    <rect x="3" y="11" width="18" height="10" rx="2" ry="2" stroke="currentColor" stroke-width="1.5" fill="none"/>
    <circle cx="12" cy="7" r="4" stroke="currentColor" stroke-width="1.5" fill="none"/>
    <path stroke="currentColor" stroke-width="1.5" fill="none" stroke-linecap="round" 
          d="M7 11V7a5 5 0 0 1 10 0v4"/>
    <circle cx="12" cy="16" r="1" fill="currentColor"/>
  </symbol>

  <!-- Settings Gear Icon -->
  <symbol id="settings-gear" viewBox="0 0 24 24">
    <circle cx="12" cy="12" r="3" stroke="currentColor" stroke-width="1.5" fill="none"/>
    <path stroke="currentColor" stroke-width="1.5" fill="none" stroke-linecap="round" stroke-linejoin="round" 
          d="M19.4 15a1.65 1.65 0 0 0 .33 1.82l.06.06a2 2 0 0 1 0 2.83 2 2 0 0 1-2.83 0l-.06-.06a1.65 1.65 0 0 0-1.82-.33 1.65 1.65 0 0 0-1 1.51V21a2 2 0 0 1-2 2 2 2 0 0 1-2-2v-.09A1.65 1.65 0 0 0 9 19.4a1.65 1.65 0 0 0-1.82.33l-.06.06a2 2 0 0 1-2.83 0 2 2 0 0 1 0-2.83l.06-.06a1.65 1.65 0 0 0 .33-1.82 1.65 1.65 0 0 0-1.51-1H3a2 2 0 0 1-2-2 2 2 0 0 1 2-2h.09A1.65 1.65 0 0 0 4.6 9a1.65 1.65 0 0 0-.33-1.82l-.06-.06a2 2 0 0 1 0-2.83 2 2 0 0 1 2.83 0l.06.06a1.65 1.65 0 0 0 1.82.33H9a1.65 1.65 0 0 0 1-1.51V3a2 2 0 0 1 2-2 2 2 0 0 1 2 2v.09a1.65 1.65 0 0 0 1 1.51 1.65 1.65 0 0 0 1.82-.33l.06-.06a2 2 0 0 1 2.83 0 2 2 0 0 1 0 2.83l-.06.06a1.65 1.65 0 0 0-.33 1.82V9a1.65 1.65 0 0 0 1.51 1H21a2 2 0 0 1 2 2 2 2 0 0 1-2 2h-.09a1.65 1.65 0 0 0-1.51 1z"/>
  </symbol>

  <!-- Notification Bell Icon -->
  <symbol id="notification-bell" viewBox="0 0 24 24">
    <path stroke="currentColor" stroke-width="1.5" fill="none" stroke-linecap="round" stroke-linejoin="round" 
          d="M18 8A6 6 0 0 0 6 8c0 7-3 9-3 9h18s-3-2-3-9"/>
    <path stroke="currentColor" stroke-width="1.5" fill="none" stroke-linecap="round" stroke-linejoin="round" 
          d="M13.73 21a2 2 0 0 1-3.46 0"/>
    <circle cx="18" cy="6" r="3" fill="#FF3B30"/>
  </symbol>

  <!-- User Profile Icon -->
  <symbol id="user-profile" viewBox="0 0 24 24">
    <path stroke="currentColor" stroke-width="1.5" fill="none" stroke-linecap="round" stroke-linejoin="round" 
          d="M20 21v-2a4 4 0 0 0-4-4H8a4 4 0 0 0-4 4v2"/>
    <circle cx="12" cy="7" r="4" stroke="currentColor" stroke-width="1.5" fill="none"/>
  </symbol>

  <!-- Search Icon -->
  <symbol id="search" viewBox="0 0 24 24">
    <circle cx="11" cy="11" r="8" stroke="currentColor" stroke-width="1.5" fill="none"/>
    <path stroke="currentColor" stroke-width="1.5" stroke-linecap="round" 
          d="M21 21l-4.35-4.35"/>
  </symbol>

  <!-- Menu Hamburger Icon -->
  <symbol id="menu-hamburger" viewBox="0 0 24 24">
    <path stroke="currentColor" stroke-width="1.5" stroke-linecap="round" stroke-linejoin="round" 
          d="M3 12h18M3 6h18M3 18h18"/>
  </symbol>

  <!-- Close X Icon -->
  <symbol id="close-x" viewBox="0 0 24 24">
    <path stroke="currentColor" stroke-width="1.5" stroke-linecap="round" stroke-linejoin="round" 
          d="M18 6L6 18M6 6l12 12"/>
  </symbol>

  <!-- Arrow Left Icon -->
  <symbol id="arrow-left" viewBox="0 0 24 24">
    <path stroke="currentColor" stroke-width="1.5" stroke-linecap="round" stroke-linejoin="round" 
          d="M19 12H5M12 19l-7-7 7-7"/>
  </symbol>

  <!-- Arrow Right Icon -->
  <symbol id="arrow-right" viewBox="0 0 24 24">
    <path stroke="currentColor" stroke-width="1.5" stroke-linecap="round" stroke-linejoin="round" 
          d="M5 12h14M12 5l7 7-7 7"/>
  </symbol>

  <!-- Arrow Up Icon -->
  <symbol id="arrow-up" viewBox="0 0 24 24">
    <path stroke="currentColor" stroke-width="1.5" stroke-linecap="round" stroke-linejoin="round" 
          d="M12 19V5M5 12l7-7 7 7"/>
  </symbol>

  <!-- Arrow Down Icon -->
  <symbol id="arrow-down" viewBox="0 0 24 24">
    <path stroke="currentColor" stroke-width="1.5" stroke-linecap="round" stroke-linejoin="round" 
          d="M12 5v14M19 12l-7 7-7-7"/>
  </symbol>

  <!-- Chevron Left Icon -->
  <symbol id="chevron-left" viewBox="0 0 24 24">
    <path stroke="currentColor" stroke-width="1.5" stroke-linecap="round" stroke-linejoin="round" 
          d="M15 18l-6-6 6-6"/>
  </symbol>

  <!-- Chevron Right Icon -->
  <symbol id="chevron-right" viewBox="0 0 24 24">
    <path stroke="currentColor" stroke-width="1.5" stroke-linecap="round" stroke-linejoin="round" 
          d="M9 18l6-6-6-6"/>
  </symbol>

  <!-- Chevron Up Icon -->
  <symbol id="chevron-up" viewBox="0 0 24 24">
    <path stroke="currentColor" stroke-width="1.5" stroke-linecap="round" stroke-linejoin="round" 
          d="M18 15l-6-6-6 6"/>
  </symbol>

  <!-- Chevron Down Icon -->
  <symbol id="chevron-down" viewBox="0 0 24 24">
    <path stroke="currentColor" stroke-width="1.5" stroke-linecap="round" stroke-linejoin="round" 
          d="M6 9l6 6 6-6"/>
  </symbol>

  <!-- Plus Icon -->
  <symbol id="plus" viewBox="0 0 24 24">
    <path stroke="currentColor" stroke-width="1.5" stroke-linecap="round" stroke-linejoin="round" 
          d="M12 5v14M5 12h14"/>
  </symbol>

  <!-- Minus Icon -->
  <symbol id="minus" viewBox="0 0 24 24">
    <path stroke="currentColor" stroke-width="1.5" stroke-linecap="round" stroke-linejoin="round" 
          d="M5 12h14"/>
  </symbol>

  <!-- Check Icon -->
  <symbol id="check" viewBox="0 0 24 24">
    <path stroke="currentColor" stroke-width="1.5" stroke-linecap="round" stroke-linejoin="round" 
          d="M20 6L9 17l-5-5"/>
  </symbol>

  <!-- Warning Triangle Icon -->
  <symbol id="warning-triangle" viewBox="0 0 24 24">
    <path stroke="currentColor" stroke-width="1.5" stroke-linecap="round" stroke-linejoin="round" 
          d="M10.29 3.86L1.82 18a2 2 0 0 0 1.71 3h16.94a2 2 0 0 0 1.71-3L13.71 3.86a2 2 0 0 0-3.42 0z"/>
    <path stroke="currentColor" stroke-width="1.5" stroke-linecap="round" stroke-linejoin="round" 
          d="M12 9v4M12 17h.01"/>
  </symbol>

  <!-- Info Circle Icon -->
  <symbol id="info-circle" viewBox="0 0 24 24">
    <circle cx="12" cy="12" r="10" stroke="currentColor" stroke-width="1.5" fill="none"/>
    <path stroke="currentColor" stroke-width="1.5" stroke-linecap="round" stroke-linejoin="round" 
          d="M12 16v-4M12 8h.01"/>
  </symbol>

  <!-- Heart Icon -->
  <symbol id="heart" viewBox="0 0 24 24">
    <path stroke="currentColor" stroke-width="1.5" fill="none" stroke-linecap="round" stroke-linejoin="round" 
          d="M20.84 4.61a5.5 5.5 0 0 0-7.78 0L12 5.67l-1.06-1.06a5.5 5.5 0 0 0-7.78 7.78l1.06 1.06L12 21.23l7.78-7.78 1.06-1.06a5.5 5.5 0 0 0 0-7.78z"/>
  </symbol>

  <!-- Star Icon -->
  <symbol id="star" viewBox="0 0 24 24">
    <path stroke="currentColor" stroke-width="1.5" fill="none" stroke-linecap="round" stroke-linejoin="round" 
          d="M12 2l3.09 6.26L22 9.27l-5 4.87 1.18 6.88L12 17.77l-6.18 3.25L7 14.14 2 9.27l6.91-1.01L12 2z"/>
  </symbol>

  <!-- Eye Icon -->
  <symbol id="eye" viewBox="0 0 24 24">
    <path stroke="currentColor" stroke-width="1.5" fill="none" stroke-linecap="round" stroke-linejoin="round" 
          d="M1 12s4-8 11-8 11 8 11 8-4 8-11 8-11-8-11-8z"/>
    <circle cx="12" cy="12" r="3" stroke="currentColor" stroke-width="1.5" fill="none"/>
  </symbol>

  <!-- Eye Off Icon -->
  <symbol id="eye-off" viewBox="0 0 24 24">
    <path stroke="currentColor" stroke-width="1.5" fill="none" stroke-linecap="round" stroke-linejoin="round" 
          d="M17.94 17.94A10.07 10.07 0 0 1 12 20c-7 0-11-8-11-8a18.45 18.45 0 0 1 5.06-5.94M9.9 4.24A9.12 9.12 0 0 1 12 4c7 0 11 8 11 8a18.5 18.5 0 0 1-2.16 3.19m-6.72-1.07a3 3 0 1 1-4.24-4.24"/>
    <path stroke="currentColor" stroke-width="1.5" stroke-linecap="round" stroke-linejoin="round" 
          d="M1 1l22 22"/>
  </symbol>

  <!-- Download Icon -->
  <symbol id="download" viewBox="0 0 24 24">
    <path stroke="currentColor" stroke-width="1.5" stroke-linecap="round" stroke-linejoin="round" 
          d="M21 15v4a2 2 0 0 1-2 2H5a2 2 0 0 1-2-2v-4M7 10l5 5 5-5M12 15V3"/>
  </symbol>

  <!-- Upload Icon -->
  <symbol id="upload" viewBox="0 0 24 24">
    <path stroke="currentColor" stroke-width="1.5" stroke-linecap="round" stroke-linejoin="round" 
          d="M21 15v4a2 2 0 0 1-2 2H5a2 2 0 0 1-2-2v-4M17 8l-5-5-5 5M12 3v12"/>
  </symbol>

  <!-- Refresh Icon -->
  <symbol id="refresh" viewBox="0 0 24 24">
    <path stroke="currentColor" stroke-width="1.5" stroke-linecap="round" stroke-linejoin="round" 
          d="M1 4v6h6M23 20v-6h-6"/>
    <path stroke="currentColor" stroke-width="1.5" stroke-linecap="round" stroke-linejoin="round" 
          d="M20.49 9A9 9 0 0 0 5.64 5.64L1 10m22 4l-4.64 4.36A9 9 0 0 1 3.51 15"/>
  </symbol>

  <!-- Home Icon -->
  <symbol id="home" viewBox="0 0 24 24">
    <path stroke="currentColor" stroke-width="1.5" stroke-linecap="round" stroke-linejoin="round" 
          d="M3 9l9-7 9 7v11a2 2 0 0 1-2 2H5a2 2 0 0 1-2-2z"/>
    <path stroke="currentColor" stroke-width="1.5" stroke-linecap="round" stroke-linejoin="round" 
          d="M9 22V12h6v10"/>
  </symbol>

  <!-- Dashboard Icon -->
  <symbol id="dashboard" viewBox="0 0 24 24">
    <rect x="3" y="3" width="7" height="7" rx="1" stroke="currentColor" stroke-width="1.5" fill="none"/>
    <rect x="14" y="3" width="7" height="7" rx="1" stroke="currentColor" stroke-width="1.5" fill="none"/>
    <rect x="14" y="14" width="7" height="7" rx="1" stroke="currentColor" stroke-width="1.5" fill="none"/>
    <rect x="3" y="14" width="7" height="7" rx="1" stroke="currentColor" stroke-width="1.5" fill="none"/>
  </symbol>

</svg>